<svg width="390" height="714" viewBox="0 0 390 714" fill="none" xmlns="http://www.w3.org/2000/svg">
<path fill-rule="evenodd" clip-rule="evenodd" d="M-83.9296 124.923C-75.8131 77.7654 -34.4261 41.8696 15.026 41.8696C24.8817 41.8696 34.417 43.2953 43.4324 45.9519C61.3414 18.3084 92.5452 0 127.862 0C183.091 0 228.26 44.7715 228.26 100V125.295C274.681 133.28 310 173.732 310 222.432C310 276.87 265.87 321 211.432 321H196.328H15.026H-56.1049H-69.4321C-123.87 321 -168 276.87 -168 222.432C-168 172.92 -131.494 131.934 -83.9296 124.923Z" fill="url(#paint0_linear_71_66)" fill-opacity="0.3"/>
<mask id="path-2-inside-1_71_66" fill="white">
<path fill-rule="evenodd" clip-rule="evenodd" d="M296.138 78.1358C299.348 71.0554 306.478 66.1305 314.758 66.1305H318.417C320.488 66.1305 322.488 66.4387 324.372 67.0119C328.118 62.7152 333.632 60 339.78 60H343.439C353.947 60 362.603 67.9322 363.746 78.1358H364.218H367.568C375.539 78.1358 382 84.5973 382 92.5679C382 100.538 375.539 107 367.568 107H364.218H318.481C318.459 107 318.438 107 318.417 107H314.758C314.737 107 314.715 107 314.694 107H293.387H290.432C282.461 107 276 100.538 276 92.5679C276 84.5973 282.461 78.1358 290.432 78.1358H293.387H296.138Z"/>
</mask>
<path fill-rule="evenodd" clip-rule="evenodd" d="M296.138 78.1358C299.348 71.0554 306.478 66.1305 314.758 66.1305H318.417C320.488 66.1305 322.488 66.4387 324.372 67.0119C328.118 62.7152 333.632 60 339.78 60H343.439C353.947 60 362.603 67.9322 363.746 78.1358H364.218H367.568C375.539 78.1358 382 84.5973 382 92.5679C382 100.538 375.539 107 367.568 107H364.218H318.481C318.459 107 318.438 107 318.417 107H314.758C314.737 107 314.715 107 314.694 107H293.387H290.432C282.461 107 276 100.538 276 92.5679C276 84.5973 282.461 78.1358 290.432 78.1358H293.387H296.138Z" fill="url(#paint1_linear_71_66)" fill-opacity="0.2"/>
<path d="M296.138 78.1358V79.1358H296.782L297.048 78.5487L296.138 78.1358ZM324.372 67.0119L324.081 67.9686L324.7 68.157L325.126 67.6691L324.372 67.0119ZM363.746 78.1358L362.752 78.2471L362.851 79.1358H363.746V78.1358ZM318.481 107V106L318.478 106L318.481 107ZM314.694 107L314.697 106H314.694V107ZM297.048 78.5487C300.103 71.8126 306.885 67.1305 314.758 67.1305V65.1305C306.071 65.1305 298.593 70.2982 295.227 77.7229L297.048 78.5487ZM314.758 67.1305H318.417V65.1305H314.758V67.1305ZM318.417 67.1305C320.388 67.1305 322.29 67.4238 324.081 67.9686L324.663 66.0552C322.686 65.4536 320.588 65.1305 318.417 65.1305V67.1305ZM325.126 67.6691C328.69 63.5809 333.933 61 339.78 61V59C333.331 59 327.546 61.8495 323.618 66.3547L325.126 67.6691ZM339.78 61H343.439V59H339.78V61ZM343.439 61C353.432 61 361.666 68.5439 362.752 78.2471L364.74 78.0245C363.541 67.3206 354.462 59 343.439 59V61ZM363.746 79.1358H364.218V77.1358H363.746V79.1358ZM364.218 79.1358H367.568V77.1358H364.218V79.1358ZM367.568 79.1358C374.986 79.1358 381 85.1495 381 92.5679H383C383 84.045 376.091 77.1358 367.568 77.1358V79.1358ZM381 92.5679C381 99.9862 374.986 106 367.568 106V108C376.091 108 383 101.091 383 92.5679H381ZM367.568 106H364.218V108H367.568V106ZM364.218 106H318.481V108H364.218V106ZM318.478 106C318.457 106 318.437 106 318.417 106V108C318.439 108 318.462 108 318.484 108L318.478 106ZM318.417 106H314.758V108H318.417V106ZM314.758 106C314.738 106 314.717 106 314.697 106L314.691 108C314.713 108 314.736 108 314.758 108V106ZM314.694 106H293.387V108H314.694V106ZM293.387 106H290.432V108H293.387V106ZM290.432 106C283.014 106 277 99.9862 277 92.5679H275C275 101.091 281.909 108 290.432 108V106ZM277 92.5679C277 85.1495 283.014 79.1358 290.432 79.1358V77.1358C281.909 77.1358 275 84.045 275 92.5679H277ZM290.432 79.1358H293.387V77.1358H290.432V79.1358ZM293.387 79.1358H296.138V77.1358H293.387V79.1358Z" fill="url(#paint2_linear_71_66)" fill-opacity="0.1" mask="url(#path-2-inside-1_71_66)"/>
<mask id="path-4-inside-2_71_66" fill="white">
<path fill-rule="evenodd" clip-rule="evenodd" d="M350.851 14.663C353.447 8.93841 359.212 4.95654 365.906 4.95654H370.25C371.748 4.95654 373.2 5.15607 374.581 5.53003C377.606 2.13674 382.012 0 386.916 0H391.259C399.755 0 406.754 6.41331 407.677 14.663H408.519H411.332C417.776 14.663 423 19.8872 423 26.3315C423 32.7758 417.776 38 411.332 38H408.519H370.289C370.276 38 370.263 38 370.25 38H365.906C365.893 38 365.88 38 365.867 38H348.15H345.668C339.224 38 334 32.7758 334 26.3315C334 19.8872 339.224 14.663 345.668 14.663H348.15H350.851Z"/>
</mask>
<path fill-rule="evenodd" clip-rule="evenodd" d="M350.851 14.663C353.447 8.93841 359.212 4.95654 365.906 4.95654H370.25C371.748 4.95654 373.2 5.15607 374.581 5.53003C377.606 2.13674 382.012 0 386.916 0H391.259C399.755 0 406.754 6.41331 407.677 14.663H408.519H411.332C417.776 14.663 423 19.8872 423 26.3315C423 32.7758 417.776 38 411.332 38H408.519H370.289C370.276 38 370.263 38 370.25 38H365.906C365.893 38 365.88 38 365.867 38H348.15H345.668C339.224 38 334 32.7758 334 26.3315C334 19.8872 339.224 14.663 345.668 14.663H348.15H350.851Z" fill="url(#paint3_linear_71_66)" fill-opacity="0.2"/>
<path d="M350.851 14.663V15.663H351.496L351.762 15.076L350.851 14.663ZM374.581 5.53003L374.319 6.49523L374.916 6.65684L375.327 6.19557L374.581 5.53003ZM407.677 14.663L406.683 14.7743L406.783 15.663H407.677V14.663ZM370.289 38V37L370.287 37L370.289 38ZM365.867 38L365.869 37H365.867V38ZM351.762 15.076C354.202 9.69564 359.618 5.95654 365.906 5.95654V3.95654C358.805 3.95654 352.692 8.18118 349.941 14.2501L351.762 15.076ZM365.906 5.95654H370.25V3.95654H365.906V5.95654ZM370.25 5.95654C371.659 5.95654 373.023 6.14416 374.319 6.49523L374.842 4.56482C373.377 4.16799 371.837 3.95654 370.25 3.95654V5.95654ZM375.327 6.19557C378.171 3.00605 382.309 1 386.916 1V-1C381.715 -1 377.042 1.26743 373.834 4.86448L375.327 6.19557ZM386.916 1H391.259V-1H386.916V1ZM391.259 1C399.24 1 405.816 7.02495 406.683 14.7743L408.671 14.5518C407.691 5.80166 400.27 -1 391.259 -1V1ZM407.677 15.663H408.519V13.663H407.677V15.663ZM408.519 15.663H411.332V13.663H408.519V15.663ZM411.332 15.663C417.224 15.663 422 20.4395 422 26.3315H424C424 19.3349 418.328 13.663 411.332 13.663V15.663ZM422 26.3315C422 32.2235 417.224 37 411.332 37V39C418.328 39 424 33.3281 424 26.3315H422ZM411.332 37H408.519V39H411.332V37ZM408.519 37H370.289V39H408.519V37ZM370.287 37C370.274 37 370.262 37 370.25 37V39C370.264 39 370.277 39 370.291 39L370.287 37ZM370.25 37H365.906V39H370.25V37ZM365.906 37C365.894 37 365.882 37 365.869 37L365.865 39C365.879 39 365.893 39 365.906 39V37ZM365.867 37H348.15V39H365.867V37ZM348.15 37H345.668V39H348.15V37ZM345.668 37C339.776 37 335 32.2235 335 26.3315H333C333 33.3281 338.672 39 345.668 39V37ZM335 26.3315C335 20.4395 339.776 15.663 345.668 15.663V13.663C338.672 13.663 333 19.3349 333 26.3315H335ZM345.668 15.663H348.15V13.663H345.668V15.663ZM348.15 15.663H350.851V13.663H348.15V15.663Z" fill="url(#paint4_linear_71_66)" fill-opacity="0.1" mask="url(#path-4-inside-2_71_66)"/>
<mask id="path-6-inside-3_71_66" fill="white">
<path fill-rule="evenodd" clip-rule="evenodd" d="M143.64 528.738C151.974 484.216 191.045 450.522 237.985 450.522C247.539 450.522 256.766 451.917 265.475 454.516C282.613 428.313 312.217 411 345.864 411C398.876 411 441.851 453.975 441.851 506.987V529.104C486.157 536.231 520 574.643 520 620.959C520 672.344 478.344 714 426.959 714H412.519H237.985H168.783H156.041C104.656 714 63 672.344 63 620.959C63 573.779 98.1177 534.801 143.64 528.738Z"/>
</mask>
<path fill-rule="evenodd" clip-rule="evenodd" d="M143.64 528.738C151.974 484.216 191.045 450.522 237.985 450.522C247.539 450.522 256.766 451.917 265.475 454.516C282.613 428.313 312.217 411 345.864 411C398.876 411 441.851 453.975 441.851 506.987V529.104C486.157 536.231 520 574.643 520 620.959C520 672.344 478.344 714 426.959 714H412.519H237.985H168.783H156.041C104.656 714 63 672.344 63 620.959C63 573.779 98.1177 534.801 143.64 528.738Z" fill="url(#paint5_linear_71_66)" fill-opacity="0.2"/>
<path d="M143.64 528.738L143.772 529.729L144.49 529.633L144.623 528.922L143.64 528.738ZM265.475 454.516L265.189 455.474L265.904 455.688L266.312 455.063L265.475 454.516ZM441.851 529.104H440.851V529.956L441.692 530.091L441.851 529.104ZM144.623 528.922C152.87 484.864 191.535 451.522 237.985 451.522V449.522C190.555 449.522 151.078 483.568 142.657 528.554L144.623 528.922ZM237.985 451.522C247.441 451.522 256.572 452.903 265.189 455.474L265.761 453.558C256.96 450.932 247.637 449.522 237.985 449.522V451.522ZM266.312 455.063C283.273 429.131 312.569 412 345.864 412V410C311.865 410 281.953 427.495 264.638 453.969L266.312 455.063ZM345.864 412C398.324 412 440.851 454.527 440.851 506.987H442.851C442.851 453.423 399.429 410 345.864 410V412ZM440.851 506.987V529.104H442.851V506.987H440.851ZM441.692 530.091C485.521 537.142 519 575.142 519 620.959H521C521 574.144 486.793 535.321 442.01 528.117L441.692 530.091ZM519 620.959C519 671.792 477.792 713 426.959 713V715C478.897 715 521 672.897 521 620.959H519ZM426.959 713H412.519V715H426.959V713ZM412.519 713H237.985V715H412.519V713ZM237.985 713H168.783V715H237.985V713ZM168.783 713H156.041V715H168.783V713ZM156.041 713C105.208 713 64 671.792 64 620.959H62C62 672.897 104.104 715 156.041 715V713ZM64 620.959C64 574.287 98.74 535.727 143.772 529.729L143.508 527.746C97.4954 533.875 62 573.271 62 620.959H64Z" fill="#CACACA" fill-opacity="0.1" mask="url(#path-6-inside-3_71_66)"/>
<mask id="path-8-inside-4_71_66" fill="white">
<path fill-rule="evenodd" clip-rule="evenodd" d="M463 353.565C463 307.851 428.314 270.239 383.825 265.609V251.247C383.825 197.539 340.286 154 286.578 154C253.375 154 224.059 170.64 206.513 196.035C197.287 193.131 187.468 191.565 177.282 191.565C131.681 191.565 93.4112 222.952 82.8966 265.301C36.6353 268.16 0 306.584 0 353.565C0 402.406 39.5936 442 88.4348 442H101.344L177.282 442L359.935 442H374.565C423.406 442 463 402.406 463 353.565Z"/>
</mask>
<path fill-rule="evenodd" clip-rule="evenodd" d="M463 353.565C463 307.851 428.314 270.239 383.825 265.609V251.247C383.825 197.539 340.286 154 286.578 154C253.375 154 224.059 170.64 206.513 196.035C197.287 193.131 187.468 191.565 177.282 191.565C131.681 191.565 93.4112 222.952 82.8966 265.301C36.6353 268.16 0 306.584 0 353.565C0 402.406 39.5936 442 88.4348 442H101.344L177.282 442L359.935 442H374.565C423.406 442 463 402.406 463 353.565Z" fill="url(#paint6_linear_71_66)" fill-opacity="0.3"/>
<path d="M383.825 265.609H382.825V266.511L383.722 266.604L383.825 265.609ZM206.513 196.035L206.213 196.989L206.917 197.21L207.336 196.603L206.513 196.035ZM82.8966 265.301L82.9583 266.299L83.6904 266.254L83.8672 265.542L82.8966 265.301ZM101.344 442L101.344 443L101.344 443L101.344 442ZM177.282 442L177.282 441L177.282 441L177.282 442ZM359.935 442L359.935 443H359.935V442ZM383.722 266.604C427.707 271.181 462 308.369 462 353.565H464C464 307.334 428.922 269.296 383.929 264.615L383.722 266.604ZM382.825 251.247V265.609H384.825V251.247H382.825ZM286.578 155C339.734 155 382.825 198.091 382.825 251.247H384.825C384.825 196.987 340.838 153 286.578 153V155ZM207.336 196.603C224.703 171.467 253.718 155 286.578 155V153C253.033 153 223.415 169.813 205.691 195.467L207.336 196.603ZM177.282 192.565C187.365 192.565 197.083 194.115 206.213 196.989L206.814 195.081C197.491 192.147 187.571 190.565 177.282 190.565V192.565ZM83.8672 265.542C94.2736 223.628 132.152 192.565 177.282 192.565V190.565C131.211 190.565 92.5488 222.276 81.9261 265.06L83.8672 265.542ZM1 353.565C1 307.116 37.2211 269.125 82.9583 266.299L82.835 264.303C36.0496 267.194 -1 306.052 -1 353.565H1ZM88.4348 441C40.1459 441 1 401.854 1 353.565H-1C-1 402.959 39.0413 443 88.4348 443V441ZM101.344 441H88.4348V443H101.344V441ZM177.282 441L101.344 441L101.344 443L177.282 443L177.282 441ZM359.935 441L177.282 441L177.282 443L359.935 443L359.935 441ZM374.565 441H359.935V443H374.565V441ZM462 353.565C462 401.854 422.854 441 374.565 441V443C423.959 443 464 402.959 464 353.565H462Z" fill="url(#paint7_linear_71_66)" fill-opacity="0.1" mask="url(#path-8-inside-4_71_66)"/>
<mask id="path-10-inside-5_71_66" fill="white">
<path fill-rule="evenodd" clip-rule="evenodd" d="M277 500.88C277 456.493 245.606 419.438 203.81 410.708V382.896C203.81 333.248 163.563 293 113.914 293C81.6443 293 53.3455 310.004 37.4887 335.54C29.6682 333.319 21.4134 332.13 12.881 332.13C-32.8273 332.13 -70.5679 366.244 -76.2699 410.4C-118.832 418.531 -151 455.949 -151 500.88C-151 551.757 -109.757 593 -58.8804 593H-46.9474H12.881H171.356H184.88C235.757 593 277 551.757 277 500.88Z"/>
</mask>
<path fill-rule="evenodd" clip-rule="evenodd" d="M277 500.88C277 456.493 245.606 419.438 203.81 410.708V382.896C203.81 333.248 163.563 293 113.914 293C81.6443 293 53.3455 310.004 37.4887 335.54C29.6682 333.319 21.4134 332.13 12.881 332.13C-32.8273 332.13 -70.5679 366.244 -76.2699 410.4C-118.832 418.531 -151 455.949 -151 500.88C-151 551.757 -109.757 593 -58.8804 593H-46.9474H12.881H171.356H184.88C235.757 593 277 551.757 277 500.88Z" fill="url(#paint8_linear_71_66)" fill-opacity="0.2"/>
<path d="M203.81 410.708H202.81V411.521L203.606 411.687L203.81 410.708ZM37.4887 335.54L37.2155 336.502L37.9406 336.708L38.3382 336.068L37.4887 335.54ZM-76.2699 410.4L-76.0823 411.382L-75.3709 411.246L-75.2782 410.528L-76.2699 410.4ZM203.606 411.687C244.947 420.322 276 456.976 276 500.88H278C278 456.01 246.264 418.554 204.015 409.729L203.606 411.687ZM202.81 382.896V410.708H204.81V382.896H202.81ZM113.914 294C163.01 294 202.81 333.8 202.81 382.896H204.81C204.81 332.695 164.115 292 113.914 292V294ZM38.3382 336.068C54.0203 310.813 82.0044 294 113.914 294V292C81.2842 292 52.6707 309.195 36.6391 335.012L38.3382 336.068ZM12.881 333.13C21.3201 333.13 29.483 334.306 37.2155 336.502L37.7619 334.578C29.8533 332.332 21.5067 331.13 12.881 331.13V333.13ZM-75.2782 410.528C-69.6397 366.864 -32.318 333.13 12.881 333.13V331.13C-33.3365 331.13 -71.4961 365.624 -77.2617 410.272L-75.2782 410.528ZM-150 500.88C-150 456.438 -118.182 419.425 -76.0823 411.382L-76.4576 409.418C-119.482 417.637 -152 455.46 -152 500.88H-150ZM-58.8804 592C-109.204 592 -150 551.204 -150 500.88H-152C-152 552.309 -110.309 594 -58.8804 594V592ZM-46.9474 592H-58.8804V594H-46.9474V592ZM12.881 592H-46.9474V594H12.881V592ZM171.356 592H12.881V594H171.356V592ZM184.88 592H171.356V594H184.88V592ZM276 500.88C276 551.204 235.204 592 184.88 592V594C236.309 594 278 552.309 278 500.88H276Z" fill="url(#paint9_linear_71_66)" fill-opacity="0.1" mask="url(#path-10-inside-5_71_66)"/>
<defs>
<linearGradient id="paint0_linear_71_66" x1="71" y1="133.459" x2="75.0476" y2="-0.0045901" gradientUnits="userSpaceOnUse">
<stop stop-color="#4068FF" stop-opacity="0"/>
<stop offset="1" stop-color="#060000"/>
</linearGradient>
<linearGradient id="paint1_linear_71_66" x1="329" y1="79.5408" x2="329.391" y2="59.9892" gradientUnits="userSpaceOnUse">
<stop stop-color="#4068FF" stop-opacity="0.21"/>
<stop offset="1" stop-color="#D8D8D8"/>
</linearGradient>
<linearGradient id="paint2_linear_71_66" x1="329" y1="60" x2="329" y2="107" gradientUnits="userSpaceOnUse">
<stop stop-color="white"/>
<stop offset="1" stop-color="white" stop-opacity="0"/>
</linearGradient>
<linearGradient id="paint3_linear_71_66" x1="378.5" y1="15.7989" x2="378.805" y2="-0.00919741" gradientUnits="userSpaceOnUse">
<stop stop-color="#4068FF" stop-opacity="0.21"/>
<stop offset="1" stop-color="#D8D8D8"/>
</linearGradient>
<linearGradient id="paint4_linear_71_66" x1="378.5" y1="0" x2="378.5" y2="38" gradientUnits="userSpaceOnUse">
<stop stop-color="white"/>
<stop offset="1" stop-color="white" stop-opacity="0"/>
</linearGradient>
<linearGradient id="paint5_linear_71_66" x1="291.5" y1="536.976" x2="295.272" y2="410.993" gradientUnits="userSpaceOnUse">
<stop stop-color="#4068FF"/>
<stop offset="1" stop-color="white"/>
</linearGradient>
<linearGradient id="paint6_linear_71_66" x1="231.5" y1="273.739" x2="234.864" y2="153.98" gradientUnits="userSpaceOnUse">
<stop stop-color="#4068FF" stop-opacity="0"/>
<stop offset="1" stop-color="white"/>
</linearGradient>
<linearGradient id="paint7_linear_71_66" x1="231.5" y1="154" x2="231.5" y2="442" gradientUnits="userSpaceOnUse">
<stop stop-color="#1E1E1E"/>
<stop offset="1" stop-color="#3A3A3A" stop-opacity="0"/>
</linearGradient>
<linearGradient id="paint8_linear_71_66" x1="63" y1="417.728" x2="66.948" y2="293.006" gradientUnits="userSpaceOnUse">
<stop stop-color="#4068FF"/>
<stop offset="1" stop-color="white"/>
</linearGradient>
<linearGradient id="paint9_linear_71_66" x1="63" y1="293" x2="63" y2="593" gradientUnits="userSpaceOnUse">
<stop stop-color="#454545"/>
<stop offset="1" stop-color="#6A6A6A" stop-opacity="0"/>
</linearGradient>
</defs>
</svg>
