<svg width="390" height="714" viewBox="0 0 390 714" fill="none" xmlns="http://www.w3.org/2000/svg">
<mask id="path-1-inside-1_52_65" fill="white">
<path fill-rule="evenodd" clip-rule="evenodd" d="M277 500.88C277 456.493 245.606 419.438 203.81 410.708V382.896C203.81 333.248 163.563 293 113.914 293C81.6443 293 53.3455 310.004 37.4887 335.54C29.6682 333.319 21.4134 332.13 12.881 332.13C-32.8273 332.13 -70.5679 366.244 -76.2699 410.4C-118.832 418.531 -151 455.949 -151 500.88C-151 551.757 -109.757 593 -58.8804 593H-46.9474H12.881H171.356H184.88C235.757 593 277 551.757 277 500.88Z"/>
</mask>
<path fill-rule="evenodd" clip-rule="evenodd" d="M277 500.88C277 456.493 245.606 419.438 203.81 410.708V382.896C203.81 333.248 163.563 293 113.914 293C81.6443 293 53.3455 310.004 37.4887 335.54C29.6682 333.319 21.4134 332.13 12.881 332.13C-32.8273 332.13 -70.5679 366.244 -76.2699 410.4C-118.832 418.531 -151 455.949 -151 500.88C-151 551.757 -109.757 593 -58.8804 593H-46.9474H12.881H171.356H184.88C235.757 593 277 551.757 277 500.88Z" fill="url(#paint0_linear_52_65)" fill-opacity="0.2"/>
<path d="M203.81 410.708H202.81V411.521L203.606 411.687L203.81 410.708ZM37.4887 335.54L37.2155 336.502L37.9406 336.708L38.3382 336.068L37.4887 335.54ZM-76.2699 410.4L-76.0823 411.382L-75.3709 411.246L-75.2782 410.528L-76.2699 410.4ZM203.606 411.687C244.947 420.322 276 456.976 276 500.88H278C278 456.01 246.264 418.554 204.015 409.729L203.606 411.687ZM202.81 382.896V410.708H204.81V382.896H202.81ZM113.914 294C163.01 294 202.81 333.8 202.81 382.896H204.81C204.81 332.695 164.115 292 113.914 292V294ZM38.3382 336.068C54.0202 310.813 82.0044 294 113.914 294V292C81.2842 292 52.6707 309.195 36.6391 335.012L38.3382 336.068ZM12.881 333.13C21.3201 333.13 29.483 334.306 37.2155 336.502L37.7619 334.578C29.8533 332.332 21.5067 331.13 12.881 331.13V333.13ZM-75.2782 410.528C-69.6397 366.864 -32.318 333.13 12.881 333.13V331.13C-33.3365 331.13 -71.4961 365.624 -77.2617 410.272L-75.2782 410.528ZM-150 500.88C-150 456.438 -118.182 419.425 -76.0823 411.382L-76.4576 409.418C-119.482 417.637 -152 455.46 -152 500.88H-150ZM-58.8804 592C-109.204 592 -150 551.204 -150 500.88H-152C-152 552.309 -110.309 594 -58.8804 594V592ZM-46.9474 592H-58.8804V594H-46.9474V592ZM12.881 592H-46.9474V594H12.881V592ZM171.356 592H12.881V594H171.356V592ZM184.88 592H171.356V594H184.88V592ZM276 500.88C276 551.204 235.204 592 184.88 592V594C236.309 594 278 552.309 278 500.88H276Z" fill="url(#paint1_linear_52_65)" fill-opacity="0.1" mask="url(#path-1-inside-1_52_65)"/>
<path fill-rule="evenodd" clip-rule="evenodd" d="M408.519 14.663H407.677C406.754 6.41331 399.755 0 391.259 0H386.916C382.012 0 377.607 2.13674 374.581 5.53003C373.2 5.15608 371.748 4.95654 370.25 4.95654H365.906C359.212 4.95654 353.447 8.93841 350.851 14.663H348.15H345.668C339.224 14.663 334 19.8872 334 26.3315C334 32.7758 339.224 38 345.668 38H348.15H365.867C365.88 38 365.893 38 365.906 38H370.25C370.263 38 370.276 38 370.289 38H408.519H411.332C417.776 38 423 32.7758 423 26.3315C423 19.8872 417.776 14.663 411.332 14.663H408.519ZM-91.9296 186.923C-83.8131 139.765 -42.4261 103.87 7.02602 103.87C16.8817 103.87 26.417 105.295 35.4324 107.952C53.3414 80.3084 84.5452 62 119.862 62C175.091 62 220.26 106.772 220.26 162V187.295C266.681 195.28 302 235.732 302 284.432C302 338.87 257.87 383 203.432 383H188.328H7.02602H-64.1049H-77.4321C-131.87 383 -176 338.87 -176 284.432C-176 234.92 -139.494 193.934 -91.9296 186.923Z" fill="url(#paint2_linear_52_65)" fill-opacity="0.2"/>
<mask id="path-4-inside-2_52_65" fill="white">
<path fill-rule="evenodd" clip-rule="evenodd" d="M143.64 528.738C151.974 484.216 191.045 450.522 237.985 450.522C247.539 450.522 256.766 451.917 265.475 454.516C282.613 428.313 312.217 411 345.864 411C398.876 411 441.851 453.975 441.851 506.987V529.104C486.157 536.231 520 574.643 520 620.959C520 672.344 478.344 714 426.959 714H412.519H237.985H168.783H156.041C104.656 714 63 672.344 63 620.959C63 573.779 98.1177 534.801 143.64 528.738Z"/>
</mask>
<path fill-rule="evenodd" clip-rule="evenodd" d="M143.64 528.738C151.974 484.216 191.045 450.522 237.985 450.522C247.539 450.522 256.766 451.917 265.475 454.516C282.613 428.313 312.217 411 345.864 411C398.876 411 441.851 453.975 441.851 506.987V529.104C486.157 536.231 520 574.643 520 620.959C520 672.344 478.344 714 426.959 714H412.519H237.985H168.783H156.041C104.656 714 63 672.344 63 620.959C63 573.779 98.1177 534.801 143.64 528.738Z" fill="url(#paint3_linear_52_65)" fill-opacity="0.2"/>
<path d="M143.64 528.738L143.772 529.729L144.49 529.633L144.623 528.922L143.64 528.738ZM265.475 454.516L265.189 455.474L265.904 455.688L266.312 455.063L265.475 454.516ZM441.851 529.104H440.851V529.956L441.692 530.091L441.851 529.104ZM144.623 528.922C152.87 484.864 191.535 451.522 237.985 451.522V449.522C190.555 449.522 151.078 483.568 142.657 528.554L144.623 528.922ZM237.985 451.522C247.441 451.522 256.572 452.903 265.189 455.474L265.761 453.558C256.96 450.932 247.637 449.522 237.985 449.522V451.522ZM266.312 455.063C283.273 429.131 312.569 412 345.864 412V410C311.865 410 281.953 427.495 264.638 453.969L266.312 455.063ZM345.864 412C398.324 412 440.851 454.527 440.851 506.987H442.851C442.851 453.423 399.429 410 345.864 410V412ZM440.851 506.987V529.104H442.851V506.987H440.851ZM441.692 530.091C485.521 537.142 519 575.142 519 620.959H521C521 574.144 486.793 535.321 442.01 528.117L441.692 530.091ZM519 620.959C519 671.792 477.792 713 426.959 713V715C478.897 715 521 672.897 521 620.959H519ZM426.959 713H412.519V715H426.959V713ZM412.519 713H237.985V715H412.519V713ZM237.985 713H168.783V715H237.985V713ZM168.783 713H156.041V715H168.783V713ZM156.041 713C105.208 713 64 671.792 64 620.959H62C62 672.897 104.104 715 156.041 715V713ZM64 620.959C64 574.287 98.74 535.727 143.772 529.729L143.508 527.746C97.4954 533.875 62 573.271 62 620.959H64Z" fill="#CACACA" fill-opacity="0.1" mask="url(#path-4-inside-2_52_65)"/>
<path fill-rule="evenodd" clip-rule="evenodd" d="M479 409.565C479 363.851 444.314 326.239 399.825 321.609V307.247C399.825 253.539 356.286 210 302.578 210C269.375 210 240.059 226.64 222.513 252.035C213.287 249.131 203.468 247.565 193.282 247.565C147.681 247.565 109.411 278.952 98.8966 321.301C52.6353 324.16 16 362.584 16 409.565C16 458.406 55.5936 498 104.435 498H117.344L193.282 498L375.935 498H390.565C439.406 498 479 458.406 479 409.565Z" fill="url(#paint4_linear_52_65)" fill-opacity="0.3"/>
<defs>
<linearGradient id="paint0_linear_52_65" x1="63" y1="421.5" x2="62.8183" y2="542" gradientUnits="userSpaceOnUse">
<stop stop-color="#4068FF"/>
<stop offset="1" stop-color="white"/>
</linearGradient>
<linearGradient id="paint1_linear_52_65" x1="62.3798" y1="593" x2="63.6202" y2="293" gradientUnits="userSpaceOnUse">
<stop stop-color="#D0D0D0"/>
<stop offset="1" stop-color="#6A6A6A" stop-opacity="0"/>
</linearGradient>
<linearGradient id="paint2_linear_52_65" x1="121.614" y1="0.190148" x2="135.574" y2="382.436" gradientUnits="userSpaceOnUse">
<stop stop-color="#4068FF" stop-opacity="0.21"/>
<stop offset="1" stop-color="#D8D8D8"/>
</linearGradient>
<linearGradient id="paint3_linear_52_65" x1="291" y1="457" x2="291.294" y2="609.999" gradientUnits="userSpaceOnUse">
<stop stop-color="#4068FF"/>
<stop offset="1" stop-color="white"/>
</linearGradient>
<linearGradient id="paint4_linear_52_65" x1="247" y1="322.5" x2="247.884" y2="472.995" gradientUnits="userSpaceOnUse">
<stop stop-color="#4068FF" stop-opacity="0"/>
<stop offset="1" stop-color="white"/>
</linearGradient>
</defs>
</svg>
