<svg width="152" height="182" viewBox="0 0 152 182" fill="none" xmlns="http://www.w3.org/2000/svg">
<ellipse cx="57.5" cy="73.5" rx="57.5" ry="73.5" fill="#FFFFF5"/>
<path d="M51.9101 50.882C50.1873 51.1372 46.5121 52.0111 47.8819 54.7507C48.7359 56.4587 50.8213 54.5889 51.1922 53.5542C51.9816 51.3522 48.9138 49.4205 48.4004 51.6797C48.2185 52.4799 48.6457 55.9411 50.1153 54.4715C50.8986 53.6883 51.3176 51.5132 49.7564 51.5999C48.1005 51.6919 48.9219 55.4509 50.3945 54.0328C51.9244 52.5596 50.7099 49.8125 48.6795 51.3207C47.0492 52.5318 48.0679 55.9409 49.6766 54.3917C51.106 53.0153 50.4061 51.1693 48.4004 51.2409C46.8132 51.2976 46.0802 55.1894 48.3206 55.1894C49.7986 55.1894 51.9239 52.2998 50.3945 51.2409C48.9836 50.2642 46.9977 50.321 46.6056 52.238C46.159 54.4216 49.0471 56.0539 50.3945 54.0328C51.4195 52.4954 51.4543 49.8051 49.0385 49.8051C46.8694 49.8051 44.8808 53.1388 46.2466 55.0299C47.7283 57.0814 51.3916 54.7666 51.3916 52.6768C51.3916 50.4188 47.6908 49.7431 46.5258 51.2409C44.8676 53.3729 46.6939 56.5958 49.537 55.6481C51.5276 54.9845 51.9921 51.915 50.0954 51.0615C47.9442 50.0934 44.9175 51.0087 45.1499 53.9131C45.4433 57.5811 50.5764 55.3588 51.1723 52.8762C51.7067 50.6495 50.088 48.4428 47.6027 49.6855C44.8058 51.0839 44.1738 55.134 47.6226 56.0469C50.1767 56.723 53.2865 53.8594 51.7107 51.2808C50.7697 49.741 46.2857 49.2916 45.2894 50.9219C43.6824 53.5516 47.6745 57.6998 50.2749 55.8276C52.3556 54.3294 53.2515 49.8962 50.0954 49.1072C47.1874 48.3802 42.2446 51.4699 44.6314 54.7906C46.9986 58.0842 51.999 55.1953 52.2491 51.8193C52.4858 48.6246 47.2809 48.731 45.6484 50.3635C42.8834 53.1286 46.0374 58.0261 49.7165 56.1865C53.0732 54.5081 52.3672 50.2428 49.0385 49.3066C47.4739 48.8666 46.4444 49.5428 45.8877 51.0415C45.0189 53.3807 45.573 54.5335 47.6027 55.5484" stroke="black" stroke-width="3" stroke-linecap="round"/>
<path d="M69.1397 51.241C69.1073 52.1817 68.7844 55.9574 70.8547 54.4517C71.3906 54.0619 71.7433 53.3407 71.5726 52.6768C71.3939 51.9816 69.925 50.6157 69.3392 51.6199C68.1456 53.6661 71.0839 54.4269 70.4958 52.5971C68.9512 47.7916 64.2402 56.1762 69.4987 55.8476C74.8983 55.5101 70.6936 48.5678 67.7438 51.939C64.7319 55.3812 71.756 57.2573 71.6524 52.5971C71.6255 51.3881 69.4861 49.0532 68.1427 49.9648C66.7367 50.9188 67.0364 54.3996 68.6213 54.9701C70.2753 55.5656 72.1561 54.7504 71.9914 52.8563C71.8834 51.6144 69.3208 49.1437 68.3421 50.7624C67.6656 51.8812 67.2008 55.7694 69.6582 54.9502C71.0197 54.4964 71.3121 52.3303 70.2166 51.6" stroke="black" stroke-width="3" stroke-linecap="round"/>
<path d="M58.294 64C56.2086 64.2085 54.9439 64.171 54.3682 66.2433C54.0136 67.5201 53.9383 68.8582 54.0442 70.1815C54.3461 73.9551 58.4839 75.0264 60.9859 72.5244C63.1457 70.3646 63.336 67.9609 61.6589 65.3958C60.8395 64.1426 57.9157 63.3827 56.948 64.673" stroke="black" stroke-width="3" stroke-linecap="round"/>
<path d="M83.387 79.6047C103.766 67.2004 123.769 53.8388 144.979 42.8916C145.843 42.4456 151.612 40.896 150.083 40.1315" stroke="black" stroke-width="3" stroke-linecap="round"/>
<path d="M33 85C45.3526 88.2641 57.9746 91.4267 69.5997 96.8722C81.1047 102.261 91.9144 107.278 104.309 110.446C109.918 111.879 116.124 112.409 121.286 115.248C123.077 116.233 121.637 115.507 120.794 114.945" stroke="black" stroke-width="3" stroke-linecap="round"/>
<path d="M140 34C140.07 39.9424 140.307 46.4915 143.252 51.8462C143.69 52.6431 143.403 53.0177 143.403 51.6949" stroke="black" stroke-width="3" stroke-linecap="round"/>
<path d="M111.722 100C110.57 106.769 109 127.283 109 120.417" stroke="black" stroke-width="3" stroke-linecap="round"/>
<path d="M37.7886 143.579C38.4892 151.854 37.9247 160.891 39.1876 169.1C39.4982 171.119 40.5109 172.968 40.5109 175.036C40.5109 178 40.9167 177.231 43.6113 177.985C45.6985 178.57 52.2064 178.968 50.039 178.968" stroke="black" stroke-width="3" stroke-linecap="round"/>
<path d="M78.623 140.176C78.623 150.611 78.623 161.047 78.623 171.482C78.623 173.368 78.0072 176.562 78.7743 178.288C79.8618 180.735 84.4259 179.649 86.7899 179.649" stroke="black" stroke-width="3" stroke-linecap="round"/>
</svg>
