<svg width="61" height="62" viewBox="0 0 61 62" fill="none" xmlns="http://www.w3.org/2000/svg">
<path d="M36.1063 27.172C32.8889 21.4746 30.3138 17.4128 33.9342 11.2581C36.5093 6.88038 39.9222 3.86591 44.8833 2.61406C53.2733 0.496956 60.8413 4.43236 58.3591 13.6518C55.9515 22.5946 51.9046 30.22 46.8781 37.9438C44.7725 41.1792 36.2218 52.0228 40.0958 55.8968" stroke="#D6596F" stroke-width="3" stroke-linecap="round"/>
<path d="M36.1063 28.7678C31.9375 20.9861 29.2099 10.8749 20.148 8.02211C16.1823 6.77364 11.3333 6.01859 7.55877 8.19942C0.972176 12.005 1.05993 22.1741 4.0125 27.9699C8.51307 36.8043 19.3125 36.2488 26.5313 41.7117C32.5916 46.2979 36.9042 52.1245 36.9042 59.8864" stroke="#D6596F" stroke-width="3" stroke-linecap="round"/>
</svg>
