<svg width="284" height="176" viewBox="0 0 284 176" fill="none" xmlns="http://www.w3.org/2000/svg">
<path d="M128.055 107L141.336 27H160.672L150.047 91.2969H183.328L180.672 107H128.055Z" fill="white"/>
<path d="M136.93 100.422C135.471 109.042 132.607 116.32 128.336 122.258C124.091 128.169 118.922 132.648 112.828 135.695C106.76 138.742 100.237 140.266 93.2578 140.266C85.888 140.266 79.5078 138.625 74.1172 135.344C68.7266 132.062 64.8073 127.284 62.3594 121.008C59.9375 114.732 59.4688 107.114 60.9531 98.1561C62.3594 89.5363 65.1849 82.2447 69.4297 76.2811C73.7005 70.3176 78.8958 65.7994 85.0156 62.7264C91.1615 59.6275 97.75 58.078 104.781 58.078C112.099 58.078 118.44 59.7316 123.805 63.0389C129.195 66.3462 133.102 71.1509 135.523 77.453C137.945 83.7551 138.414 91.4113 136.93 100.422ZM117.594 98.1561C118.401 93.1301 118.401 88.8983 117.594 85.4608C116.813 82.0233 115.276 79.4322 112.984 77.6874C110.693 75.9165 107.711 75.0311 104.039 75.0311C99.9766 75.0311 96.3047 76.0337 93.0234 78.0389C89.7682 80.0181 87.0469 82.9087 84.8594 86.7108C82.6719 90.4869 81.1484 95.0572 80.2891 100.422C79.4036 105.5 79.3776 109.732 80.2109 113.117C81.0703 116.502 82.6719 119.055 85.0156 120.773C87.3594 122.466 90.3411 123.312 93.9609 123.312C97.9974 123.312 101.63 122.336 104.859 120.383C108.089 118.43 110.784 115.578 112.945 111.828C115.133 108.078 116.682 103.521 117.594 98.1561Z" fill="white"/>
<path d="M53.5156 62.1709C53.724 59.2282 52.9427 56.9495 51.1719 55.335C49.4271 53.7204 46.6667 52.9131 42.8906 52.9131C40.3906 52.9131 38.2552 53.2386 36.4844 53.8896C34.7135 54.5146 33.3203 55.4001 32.3047 56.5459C31.2891 57.6657 30.651 58.9678 30.3906 60.4521C30.1563 61.624 30.2214 62.6657 30.5859 63.5771C30.9505 64.4886 31.5885 65.2959 32.5 65.999C33.4375 66.7021 34.5964 67.3141 35.9766 67.835C37.3828 68.3558 38.9583 68.8115 40.7031 69.2021L47.2656 70.7646C51.0677 71.624 54.362 72.7699 57.1484 74.2021C59.9609 75.6084 62.2396 77.3141 63.9844 79.3193C65.7292 81.2985 66.9271 83.5771 67.5781 86.1553C68.2292 88.7334 68.2813 91.624 67.7344 94.8271C66.901 99.8792 64.9089 104.215 61.7578 107.835C58.6328 111.455 54.5443 114.228 49.4922 116.155C44.4661 118.082 38.6198 119.046 31.9531 119.046C25.2865 119.046 19.6224 118.043 14.9609 116.038C10.3255 114.007 6.96615 110.947 4.88281 106.858C2.79948 102.77 2.23958 97.6136 3.20313 91.3896H21.6797C21.3932 93.9678 21.7188 96.1162 22.6563 97.835C23.6198 99.5537 25.1042 100.856 27.1094 101.741C29.1146 102.627 31.5365 103.069 34.375 103.069C36.9792 103.069 39.2578 102.718 41.2109 102.015C43.1901 101.312 44.7656 100.335 45.9375 99.085C47.1354 97.835 47.8646 96.4027 48.125 94.7881C48.3854 93.3037 48.138 92.0146 47.3828 90.9209C46.6536 89.8271 45.4036 88.8766 43.6328 88.0693C41.888 87.262 39.5964 86.5329 36.7578 85.8818L28.75 83.9287C22.1354 82.3141 17.1224 79.736 13.7109 76.1943C10.3255 72.6527 9.1276 67.848 10.1172 61.7803C10.9505 56.8063 13.0078 52.4574 16.2891 48.7334C19.5964 45.0094 23.776 42.1188 28.8281 40.0615C33.9063 37.9782 39.4922 36.9365 45.5859 36.9365C51.7839 36.9365 56.9922 37.9912 61.2109 40.1006C65.4557 42.1839 68.5156 45.1266 70.3906 48.9287C72.2917 52.7048 72.8385 57.1188 72.0313 62.1709H53.5156Z" fill="white"/>
<path d="M159.284 130.812L151.767 131.017C151.778 130.46 151.653 129.972 151.392 129.551C151.131 129.119 150.761 128.784 150.284 128.545C149.807 128.307 149.239 128.188 148.58 128.188C147.511 128.188 146.551 128.426 145.699 128.903C144.858 129.381 144.386 130 144.284 130.761C144.205 131.17 144.318 131.528 144.625 131.835C144.932 132.131 145.614 132.392 146.67 132.619L151.58 133.574C154.102 134.074 155.932 134.943 157.068 136.182C158.216 137.409 158.625 139.034 158.295 141.057C158 142.784 157.239 144.278 156.011 145.54C154.795 146.801 153.244 147.778 151.358 148.472C149.483 149.153 147.409 149.494 145.136 149.494C141.295 149.494 138.398 148.722 136.443 147.176C134.5 145.619 133.591 143.557 133.716 140.989L141.83 140.784C141.864 141.75 142.188 142.477 142.801 142.966C143.426 143.443 144.273 143.693 145.341 143.716C146.511 143.739 147.523 143.494 148.375 142.983C149.227 142.472 149.705 141.841 149.807 141.091C149.875 140.602 149.71 140.222 149.312 139.949C148.926 139.676 148.205 139.432 147.148 139.216L142.716 138.347C140.17 137.858 138.33 136.937 137.193 135.585C136.068 134.222 135.682 132.483 136.034 130.369C136.33 128.687 137.023 127.261 138.114 126.091C139.216 124.909 140.653 124.011 142.426 123.398C144.21 122.784 146.244 122.477 148.528 122.477C152.188 122.477 154.949 123.222 156.812 124.71C158.688 126.187 159.511 128.222 159.284 130.812ZM180.212 122.818L179.172 128.955H162.655L163.695 122.818H180.212ZM168.178 116.545H176.513L172.49 140.767C172.411 141.278 172.422 141.693 172.524 142.011C172.638 142.318 172.842 142.54 173.138 142.676C173.445 142.801 173.82 142.864 174.263 142.864C174.57 142.864 174.911 142.83 175.286 142.761C175.661 142.693 175.945 142.642 176.138 142.608L176.411 148.625C175.967 148.75 175.371 148.892 174.621 149.051C173.882 149.222 173.018 149.33 172.03 149.375C170.03 149.455 168.376 149.222 167.07 148.676C165.774 148.119 164.859 147.256 164.325 146.085C163.803 144.915 163.7 143.449 164.018 141.688L168.178 116.545ZM192.024 149.494C189.263 149.494 186.984 148.926 185.189 147.79C183.405 146.653 182.149 145.068 181.422 143.034C180.695 141 180.553 138.636 180.996 135.943C181.439 133.261 182.354 130.909 183.74 128.886C185.126 126.864 186.899 125.29 189.058 124.165C191.217 123.04 193.666 122.477 196.405 122.477C199.155 122.477 201.422 123.045 203.206 124.182C205.001 125.318 206.263 126.903 206.99 128.938C207.729 130.972 207.876 133.341 207.433 136.045C206.99 138.727 206.07 141.08 204.672 143.102C203.274 145.114 201.501 146.682 199.354 147.807C197.206 148.932 194.763 149.494 192.024 149.494ZM192.962 143.205C193.984 143.205 194.899 142.898 195.706 142.284C196.524 141.67 197.212 140.812 197.768 139.71C198.325 138.608 198.723 137.33 198.962 135.875C199.2 134.443 199.223 133.188 199.03 132.108C198.848 131.017 198.462 130.17 197.871 129.568C197.28 128.955 196.479 128.648 195.467 128.648C194.445 128.648 193.524 128.96 192.706 129.585C191.888 130.199 191.2 131.057 190.643 132.159C190.098 133.25 189.706 134.528 189.467 135.994C189.229 137.426 189.2 138.682 189.382 139.761C189.564 140.841 189.956 141.688 190.558 142.301C191.161 142.903 191.962 143.205 192.962 143.205ZM209.538 149L213.902 122.818H221.999L221.197 127.591H221.47C222.232 125.864 223.226 124.58 224.453 123.739C225.68 122.886 227.01 122.46 228.442 122.46C228.828 122.46 229.214 122.489 229.601 122.545C229.999 122.591 230.374 122.659 230.726 122.75L229.499 130.011C229.112 129.864 228.607 129.756 227.982 129.688C227.357 129.608 226.788 129.568 226.277 129.568C225.288 129.568 224.368 129.79 223.516 130.233C222.675 130.665 221.959 131.273 221.368 132.057C220.788 132.83 220.408 133.739 220.226 134.784L217.874 149H209.538ZM234.033 158.818C233.033 158.818 232.101 158.739 231.237 158.58C230.385 158.432 229.658 158.233 229.055 157.983L231.919 151.932C232.68 152.205 233.379 152.358 234.016 152.392C234.663 152.438 235.243 152.33 235.754 152.068C236.277 151.818 236.732 151.369 237.118 150.722L237.595 149.92L232.805 122.818H241.226L242.93 141.517H243.203L251.214 122.818H260.3L245.692 151.506C244.953 152.938 244.061 154.205 243.016 155.307C241.97 156.409 240.709 157.267 239.232 157.881C237.766 158.506 236.033 158.818 234.033 158.818Z" fill="white"/>
</svg>
