<svg width="72" height="108" viewBox="0 0 72 108" fill="none" xmlns="http://www.w3.org/2000/svg">
<path d="M21.9924 44.3544C31.4116 42.9296 40.8633 41.6356 49.9762 38.7716C52.4387 37.9977 54.8496 37.0028 57.4432 36.8176C60.3789 36.6079 62.9191 35.5615 65.957 35.5615C69.5281 35.5615 72.3525 34.2479 67.2131 36.8176" stroke="#D6596F" stroke-width="3" stroke-linecap="round"/>
<path d="M53.3956 21.744C58.5991 26.5184 75.0133 39.7531 68.9577 36.1197C67.8298 35.443 67.7496 35.3783 67.2131 34.3053" stroke="#D6596F" stroke-width="3" stroke-linecap="round"/>
<path d="M53.3957 21.744C41.9447 22.8612 30.32 24.0426 18.9916 26.1405C16.7325 26.5588 14.8144 27.1135 12.711 27.9549C12.0328 28.2262 14.1289 28.6275 14.4556 29.2808" stroke="#D6596F" stroke-width="3" stroke-linecap="round"/>
<path d="M1.89426 31.7931C42.9182 65.7725 5.56787 36.9124 8.17491 34.3054" stroke="#D6596F" stroke-width="3" stroke-linecap="round"/>
<path d="M6.91879 31.7931C20.2564 26.6333 33.711 21.3101 47.7431 18.3246C49.6148 17.9263 50.4733 17.5397 49.6273 19.2318" stroke="#D6596F" stroke-width="3" stroke-linecap="round"/>
<path d="M52.1395 20.4879C57.4903 22.985 77.3509 28.9199 63.1656 32.0722C50.5975 34.8651 35.4542 36.6407 24.0859 42.8191C23.0473 43.3836 16.4655 46.9866 15.7117 46.5875C10.8277 44.0019 8.15506 32.9698 6.91879 28.0247" stroke="#D6596F" stroke-width="3" stroke-linecap="round"/>
<path d="M18.224 45.6105C18.224 64.7381 19.1067 83.789 19.4801 102.834C19.5911 108.495 19.4801 99.4312 19.4801 98.368" stroke="#D6596F" stroke-width="3" stroke-linecap="round"/>
<path d="M65.957 39.3299C65.1943 57.7421 67.2131 113.028 67.2131 94.5996" stroke="#D6596F" stroke-width="3" stroke-linecap="round"/>
<path d="M65.957 38.0737V95.8558" stroke="#D6596F" stroke-width="3" stroke-linecap="round"/>
<path d="M21.9924 105.905C35.296 103.447 74.6386 93.465 61.6303 97.1817C59.8456 97.6916 59.1511 98.368 56.8849 98.368C48.0113 98.368 39.2781 100.28 30.5061 101.439C25.7513 102.067 21.5352 102.136 28.273 102.136" stroke="#D6596F" stroke-width="3" stroke-linecap="round"/>
<path d="M3.84668 90.4892C8.35833 94.5147 12.7529 98.8635 17.499 102.625C17.7527 102.826 17.7206 102.788 17.8583 103.064" stroke="#D6596F" stroke-width="3" stroke-linecap="round"/>
<path d="M7.43942 34.4428C6.73646 41.5163 6.43706 48.6143 5.44346 55.6598C4.54961 61.998 3.48743 68.1827 3.48743 74.6014C3.48743 79.3682 3.56996 84.246 4.02633 88.9923C4.1374 90.1474 4.20597 92.296 4.20597 90.13" stroke="#D6596F" stroke-width="3" stroke-linecap="round"/>
<path d="M17.499 26.8981C16.4549 20.7562 13.7046 12.5464 16.9601 6.75886C19.259 2.67194 24.1449 1.81904 28.0976 3.36574C34.8503 6.00812 37.2724 13.9346 38.6761 20.2515C39.1862 22.5469 38.3872 19.6246 38.1771 18.8144C37.3901 15.7788 36.5268 12.9807 35.4626 10.0123C33.9231 5.71779 30.6905 3.10635 26.2014 2.18812C21.5926 1.24541 17.7238 3.29025 16.4212 7.7768C15.6765 10.342 14.805 13.2924 15.0041 15.9802C15.1842 18.4113 16.5734 20.3213 17.1398 22.5868" stroke="#F291A3" stroke-width="3" stroke-linecap="round"/>
<path d="M32.9477 41.9875C31.8309 36.6714 30.4328 30.7747 30.4328 25.2813C30.4328 22.131 30.1003 19.0189 31.5106 16.1199C32.7323 13.6087 33.7487 10.5673 36.7201 9.65299C38.207 9.19549 41.5576 8.13179 43.0273 8.77477C48.2924 11.0783 51.4053 13.8765 52.7875 19.7126C53.3868 22.243 54.0536 24.7171 54.6837 27.2374C55.1538 29.1178 54.728 31.4325 55.4022 33.1853C55.6376 33.7974 56.3099 37.3307 56.021 36.2391C54.7716 31.5192 54.5266 26.7396 53.067 22.0479C52.0755 18.8611 50.1663 15.0288 47.2388 13.1659C44.7086 11.5558 42.5075 10.9257 39.6941 10.0921C32.8564 8.06613 28.9957 17.5987 28.9957 22.9461C28.9957 29.7044 31.7113 35.6045 33.307 41.9875" stroke="#F291A3" stroke-width="3" stroke-linecap="round"/>
<path d="M44.4445 66.0587C45.1332 63.9714 46.2148 57.7813 49.2946 57.0969C51.2058 56.6722 49.7631 60.3868 49.4743 61.1087C48.4658 63.63 47.2065 66.0479 45.8815 68.4139C45.1951 69.6398 44.5342 70.9089 43.9055 72.1663C42.9609 74.0557 44.592 70.999 44.8037 70.5696C46.0403 68.0611 47.0718 65.3533 47.6779 62.6257C47.8766 61.7316 47.9858 59.5616 48.5761 58.8533C48.7746 58.6151 49.0211 57.5108 48.5561 58.3743C47.5516 60.2399 46.7509 62.2507 45.8815 64.1825C45.2397 65.6088 44.5979 67.1857 43.7259 68.4938C43.4392 68.9239 44.5773 66.6228 44.8037 66.2184C46.2997 63.547 46.4167 60.4145 47.9573 57.7955C48.626 56.6587 48.7774 55.8515 50.0132 56.538C50.5456 56.8338 51.942 56.9945 51.9892 57.7955C52.1311 60.2081 51.9833 62.4169 50.9912 64.6216C49.5491 67.8263 47.281 69.7529 44.8836 72.2462C44.3861 72.7635 44.2774 73.4437 43.7259 73.9627C43.034 74.6139 44.1726 72.2229 44.2648 71.9667C44.9967 69.9337 45.5653 67.1504 45.0832 64.9809C44.1326 60.7033 42.2628 57.897 39.1352 55.0011C38.1985 54.1338 36.0438 54.0642 34.9237 54.562C33.4879 55.2002 33.4309 56.1042 33.0276 57.516C31.6325 62.3988 37.2782 66.2237 40.0533 69.2123C41.3244 70.5812 41.7697 72.3001 42.4884 73.9427C44.0234 77.4512 42.5136 71.3775 42.3687 70.4498C41.5276 65.0672 39.2207 59.9782 35.4626 55.9991C34.9789 55.4869 35.1034 55.2718 35.1034 56.1588C35.1034 59.102 35.2512 62.9805 37.0993 65.42C38.0236 66.64 39.7308 67.1378 41.1711 66.5777C42.5522 66.0405 41.801 63.7708 41.5703 62.7454C41.1134 60.7147 40.4844 58.2622 38.3368 57.4362C36.7016 56.8073 36.6244 57.0396 37.0993 58.5938C37.7815 60.8265 38.4851 63.1181 39.754 65.1006C40.9469 66.9646 40.8143 65.0925 40.9316 63.9031C41.1512 61.6757 40.8145 58.609 38.9755 57.037C35.6512 54.1952 35.954 60.1569 36.6203 61.7275C37.6279 64.1026 39.4584 65.5754 40.8318 67.6355C41.0758 68.0015 41.2223 68.3996 41.5703 68.5736" stroke="#F291A3" stroke-width="3" stroke-linecap="round"/>
<path d="M45.5223 62.466C46.4616 59.2144 47.5205 54.562 51.6299 54.562C54.034 54.562 54.8819 57.5323 54.4242 59.5918C53.6814 62.9347 51.5762 65.8775 49.5541 68.5736C47.7233 71.0147 44.6926 73.2181 43.7259 76.1183" stroke="#F291A3" stroke-width="3" stroke-linecap="round"/>
</svg>
