<svg width="390" height="494" viewBox="0 0 390 494" fill="none" xmlns="http://www.w3.org/2000/svg">
<path fill-rule="evenodd" clip-rule="evenodd" d="M366.907 0L367.244 1.02633H368.334L367.452 1.66063L367.789 2.68696L366.907 2.05265L366.025 2.68696L366.362 1.66063L365.48 1.02633H366.57L366.907 0ZM167.006 6.56466L166.67 5.53833L166.333 6.56466H165.243L166.125 7.19896L165.788 8.22529L166.67 7.59098L167.551 8.22529L167.214 7.19896L168.096 6.56466H167.006ZM48.4301 81.2071L48.0933 80.8616L47.7566 81.2071H46.6667L47.5484 81.4206L47.2117 81.7661L48.0933 81.5526L48.975 81.7661L48.6382 81.4206L49.5199 81.2071H48.4301ZM116.331 77.5383L116.667 78.5647H117.757L116.876 79.199L117.212 80.2253L116.331 79.591L115.449 80.2253L115.786 79.199L114.904 78.5647H115.994L116.331 77.5383ZM111.074 120.657L110.737 119.631L110.401 120.657H109.311L110.192 121.291L109.856 122.318L110.737 121.683L111.619 122.318L111.282 121.291L112.164 120.657H111.074ZM91.7203 53.1692L92.0571 54.1955H93.1469L92.2652 54.8298L92.602 55.8561L91.7203 55.2218L90.8386 55.8561L91.1754 54.8298L90.2937 54.1955H91.3835L91.7203 53.1692ZM326.972 73.0263L326.636 72L326.299 73.0263H325.209L326.091 73.6606L325.754 74.687L326.636 74.0527L327.517 74.687L327.18 73.6606L328.062 73.0263H326.972ZM64.8729 203.815L65.2096 204.842H66.2995L65.4178 205.476L65.7546 206.502L64.8729 205.868L63.9912 206.502L64.328 205.476L63.4463 204.842H64.5361L64.8729 203.815ZM213.989 284.595L213.653 283.569L213.316 284.595H212.226L213.108 285.23L212.771 286.256L213.653 285.622L214.534 286.256L214.198 285.23L215.079 284.595H213.989ZM42.5001 313.477L42.8368 314.503H43.9267L43.045 315.137L43.3818 316.164L42.5001 315.529L41.6184 316.164L41.9552 315.137L41.0735 314.503H42.1633L42.5001 313.477ZM332.566 326.688L332.229 325.661L331.892 326.688H330.802L331.684 327.322L331.347 328.348L332.229 327.714L333.111 328.348L332.774 327.322L333.656 326.688H332.566ZM131.992 245.908L132.328 246.934H133.418L132.536 247.568L132.873 248.595L131.992 247.96L131.11 248.595L131.447 247.568L130.565 246.934H131.655L131.992 245.908ZM164.769 355.488L164.432 354.462L164.095 355.488H163.006L163.887 356.122L163.551 357.149L164.432 356.514L165.314 357.149L164.977 356.122L165.859 355.488H164.769ZM15.6527 86.3999L15.9894 87.4262H17.0792L16.1976 88.0605L16.5343 89.0869L15.6527 88.4526L14.771 89.0869L15.1078 88.0605L14.2261 87.4262H15.3159L15.6527 86.3999ZM36.1249 20.9648L35.7882 19.9385L35.4514 20.9648H34.3616L35.2433 21.5991L34.9065 22.6254L35.7882 21.9911L36.6698 22.6254L36.3331 21.5991L37.2147 20.9648H36.1249ZM261.754 114.092L262.091 115.119H263.181L262.299 115.753L262.636 116.779L261.754 116.145L260.873 116.779L261.209 115.753L260.328 115.119H261.417L261.754 114.092ZM172.6 109.58L172.263 108.554L171.926 109.58H170.836L171.718 110.214L171.381 111.241L172.263 110.606L173.144 111.241L172.808 110.214L173.689 109.58H172.6ZM332.229 181.662L332.566 182.688H333.656L332.774 183.322L333.111 184.349L332.229 183.714L331.347 184.349L331.684 183.322L330.802 182.688H331.892L332.229 181.662ZM-23.1632 214.811L-23.4999 213.784L-23.8367 214.811H-24.9265L-24.0448 215.445L-24.3816 216.471L-23.4999 215.837L-22.6182 216.471L-22.955 215.445L-22.0733 214.811H-23.1632ZM233.006 43.1186L232.67 42.0923L232.333 43.1186H231.243L232.125 43.7529L231.788 44.7792L232.67 44.1449L233.551 44.7792L233.215 43.7529L234.096 43.1186H233.006ZM166.093 161.862L166.43 162.888H167.52L166.638 163.522L166.975 164.549L166.093 163.914L165.212 164.549L165.548 163.522L164.667 162.888H165.757L166.093 161.862ZM285.006 87.5647L284.67 86.5383L284.333 87.5647H283.243L284.125 88.199L283.788 89.2253L284.67 88.591L285.551 89.2253L285.214 88.199L286.096 87.5647H285.006ZM234.331 158.538L234.667 159.565H235.757L234.876 160.199L235.212 161.225L234.331 160.591L233.449 161.225L233.786 160.199L232.904 159.565H233.994L234.331 158.538ZM229.074 201.657L228.737 200.631L228.401 201.657H227.311L228.192 202.291L227.856 203.318L228.737 202.683L229.619 203.318L229.282 202.291L230.164 201.657H229.074ZM209.72 134.169L210.057 135.196H211.147L210.265 135.83L210.602 136.856L209.72 136.222L208.839 136.856L209.175 135.83L208.294 135.196H209.384L209.72 134.169ZM444.972 154.026L444.636 153L444.299 154.026H443.209L444.091 154.661L443.754 155.687L444.636 155.053L445.517 155.687L445.18 154.661L446.062 154.026H444.972ZM182.873 284.815L183.21 285.842H184.299L183.418 286.476L183.755 287.502L182.873 286.868L181.991 287.502L182.328 286.476L181.446 285.842H182.536L182.873 284.815ZM331.989 365.595L331.653 364.569L331.316 365.595H330.226L331.108 366.23L330.771 367.256L331.653 366.622L332.534 367.256L332.198 366.23L333.079 365.595H331.989ZM160.5 394.477L160.837 395.503H161.927L161.045 396.137L161.382 397.164L160.5 396.529L159.618 397.164L159.955 396.137L159.073 395.503H160.163L160.5 394.477ZM450.566 407.688L450.229 406.661L449.892 407.688H448.802L449.684 408.322L449.347 409.348L450.229 408.714L451.111 409.348L450.774 408.322L451.656 407.688H450.566ZM249.992 326.908L250.328 327.934H251.418L250.536 328.568L250.873 329.595L249.992 328.96L249.11 329.595L249.447 328.568L248.565 327.934H249.655L249.992 326.908ZM282.769 436.488L282.432 435.462L282.095 436.488H281.006L281.887 437.122L281.551 438.149L282.432 437.514L283.314 438.149L282.977 437.122L283.859 436.488H282.769ZM133.653 167.4L133.989 168.426H135.079L134.198 169.061L134.534 170.087L133.653 169.453L132.771 170.087L133.108 169.061L132.226 168.426H133.316L133.653 167.4ZM154.125 101.965L153.788 100.938L153.451 101.965H152.362L153.243 102.599L152.906 103.625L153.788 102.991L154.67 103.625L154.333 102.599L155.215 101.965H154.125ZM379.754 195.092L380.091 196.119H381.181L380.299 196.753L380.636 197.779L379.754 197.145L378.873 197.779L379.209 196.753L378.328 196.119H379.417L379.754 195.092ZM290.6 190.58L290.263 189.554L289.926 190.58H288.836L289.718 191.214L289.381 192.241L290.263 191.606L291.144 192.241L290.808 191.214L291.689 190.58H290.6ZM450.229 262.662L450.566 263.688H451.656L450.774 264.322L451.111 265.349L450.229 264.714L449.347 265.349L449.684 264.322L448.802 263.688H449.892L450.229 262.662ZM94.8368 295.811L94.5001 294.784L94.1633 295.811H93.0735L93.9552 296.445L93.6184 297.471L94.5001 296.837L95.3817 297.471L95.045 296.445L95.9267 295.811H94.8368ZM484.907 81L485.244 82.0263H486.334L485.452 82.6606L485.789 83.687L484.907 83.0527L484.025 83.687L484.362 82.6606L483.48 82.0263H484.57L484.907 81ZM351.006 124.119L350.67 123.092L350.333 124.119H349.243L350.125 124.753L349.788 125.779L350.67 125.145L351.551 125.779L351.215 124.753L352.096 124.119H351.006ZM31.0933 216.862L31.4301 217.888H32.5199L31.6382 218.522L31.975 219.549L31.0933 218.914L30.2117 219.549L30.5484 218.522L29.6667 217.888H30.7566L31.0933 216.862ZM150.006 142.565L149.67 141.538L149.333 142.565H148.243L149.125 143.199L148.788 144.225L149.67 143.591L150.551 144.225L150.214 143.199L151.096 142.565H150.006ZM99.3306 213.538L99.6674 214.565H100.757L99.8755 215.199L100.212 216.225L99.3306 215.591L98.449 216.225L98.7857 215.199L97.9041 214.565H98.9939L99.3306 213.538ZM94.0741 256.657L93.7374 255.631L93.4006 256.657H92.3108L93.1925 257.291L92.8557 258.318L93.7374 257.683L94.6191 258.318L94.2823 257.291L95.164 256.657H94.0741ZM74.7203 189.169L75.0571 190.196H76.1469L75.2652 190.83L75.602 191.856L74.7203 191.222L73.8386 191.856L74.1754 190.83L73.2937 190.196H74.3835L74.7203 189.169ZM309.972 209.026L309.636 208L309.299 209.026H308.209L309.091 209.661L308.754 210.687L309.636 210.053L310.517 210.687L310.18 209.661L311.062 209.026H309.972ZM47.8729 339.815L48.2096 340.842H49.2995L48.4178 341.476L48.7546 342.502L47.8729 341.868L46.9912 342.502L47.328 341.476L46.4463 340.842H47.5361L47.8729 339.815ZM196.989 420.595L196.653 419.569L196.316 420.595H195.226L196.108 421.23L195.771 422.256L196.653 421.622L197.534 422.256L197.198 421.23L198.079 420.595H196.989ZM25.5001 449.477L25.8368 450.503H26.9267L26.045 451.137L26.3818 452.164L25.5001 451.529L24.6184 452.164L24.9552 451.137L24.0735 450.503H25.1633L25.5001 449.477ZM315.566 462.688L315.229 461.661L314.892 462.688H313.802L314.684 463.322L314.347 464.348L315.229 463.714L316.111 464.348L315.774 463.322L316.656 462.688H315.566ZM114.992 381.908L115.328 382.934H116.418L115.536 383.568L115.873 384.595L114.992 383.96L114.11 384.595L114.447 383.568L113.565 382.934H114.655L114.992 381.908ZM147.769 491.488L147.432 490.462L147.095 491.488H146.006L146.887 492.123L146.551 493.149L147.432 492.515L148.314 493.149L147.977 492.123L148.859 491.488H147.769ZM-1.34734 222.4L-1.01057 223.426H0.0792451L-0.802433 224.061L-0.465662 225.087L-1.34734 224.453L-2.22902 225.087L-1.89225 224.061L-2.77392 223.426H-1.68411L-1.34734 222.4ZM19.1249 156.965L18.7882 155.938L18.4514 156.965H17.3616L18.2433 157.599L17.9065 158.625L18.7882 157.991L19.6698 158.625L19.3331 157.599L20.2147 156.965H19.1249ZM244.754 250.092L245.091 251.119H246.181L245.299 251.753L245.636 252.779L244.754 252.145L243.873 252.779L244.209 251.753L243.328 251.119H244.417L244.754 250.092ZM155.6 245.58L155.263 244.554L154.926 245.58H153.836L154.718 246.214L154.381 247.241L155.263 246.606L156.144 247.241L155.808 246.214L156.689 245.58H155.6ZM315.229 317.662L315.566 318.688H316.656L315.774 319.322L316.111 320.349L315.229 319.714L314.347 320.349L314.684 319.322L313.802 318.688H314.892L315.229 317.662ZM-40.1632 350.811L-40.4999 349.784L-40.8367 350.811H-41.9265L-41.0448 351.445L-41.3816 352.471L-40.4999 351.837L-39.6182 352.471L-39.955 351.445L-39.0733 350.811H-40.1632ZM349.907 136L350.244 137.026H351.334L350.452 137.661L350.789 138.687L349.907 138.053L349.025 138.687L349.362 137.661L348.48 137.026H349.57L349.907 136ZM216.006 179.119L215.67 178.092L215.333 179.119H214.243L215.125 179.753L214.788 180.779L215.67 180.145L216.551 180.779L216.215 179.753L217.096 179.119H216.006Z" fill="url(#paint0_linear_80_101)"/>
<defs>
<linearGradient id="paint0_linear_80_101" x1="199" y1="-33.5" x2="208" y2="510" gradientUnits="userSpaceOnUse">
<stop stop-color="#FFFDE8"/>
<stop offset="1" stop-color="#FFFEF2" stop-opacity="0"/>
</linearGradient>
</defs>
</svg>
