<svg width="149" height="206" viewBox="0 0 149 206" fill="none" xmlns="http://www.w3.org/2000/svg">
<ellipse cx="70.3107" cy="82.5" rx="57.5" ry="73.5" fill="#FFFFF5"/>
<path d="M64.7208 59.882C62.998 60.1372 59.3227 61.0111 60.6925 63.7507C61.5465 65.4587 63.6319 63.5889 64.0029 62.5542C64.7923 60.3522 61.7245 58.4205 61.211 60.6797C61.0291 61.4799 61.4564 64.9411 62.926 63.4715C63.7093 62.6883 64.1283 60.5132 62.5671 60.5999C60.9111 60.6919 61.7326 64.4509 63.2052 63.0328C64.7351 61.5596 63.5205 58.8125 61.4902 60.3207C59.8598 61.5318 60.8786 64.9409 62.4873 63.3917C63.9167 62.0153 63.2168 60.1693 61.211 60.2409C59.6239 60.2976 58.8908 64.1894 61.1313 64.1894C62.6093 64.1894 64.7346 61.2998 63.2052 60.2409C61.7943 59.2642 59.8084 59.321 59.4163 61.238C58.9696 63.4216 61.8578 65.0539 63.2052 63.0328C64.2301 61.4954 64.2649 58.8051 61.8492 58.8051C59.6801 58.8051 57.6915 62.1388 59.0573 64.0299C60.5389 66.0814 64.2023 63.7666 64.2023 61.6768C64.2023 59.4188 60.5015 58.7431 59.3365 60.2409C57.6783 62.3729 59.5045 65.5958 62.3477 64.6481C64.3383 63.9845 64.8028 60.915 62.9061 60.0615C60.7549 59.0934 57.7282 60.0087 57.9605 62.9131C58.254 66.5811 63.3871 64.3588 63.9829 61.8762C64.5173 59.6495 62.8987 57.4428 60.4134 58.6855C57.6165 60.0839 56.9845 64.134 60.4333 65.0469C62.9873 65.723 66.0972 62.8594 64.5214 60.2808C63.5803 58.741 59.0964 58.2916 58.1001 59.9219C56.4931 62.5516 60.4852 66.6998 63.0856 64.8276C65.1663 63.3294 66.0622 58.8962 62.9061 58.1072C59.9981 57.3802 55.0553 60.4699 57.442 63.7906C59.8093 67.0842 64.8097 64.1953 65.0598 60.8193C65.2964 57.6246 60.0916 57.731 58.4591 59.3635C55.694 62.1286 58.848 67.0261 62.5272 65.1865C65.8839 63.5081 65.1778 59.2428 61.8492 58.3066C60.2846 57.8666 59.255 58.5428 58.6984 60.0415C57.8295 62.3807 58.3837 63.5335 60.4134 64.5484" stroke="black" stroke-width="3" stroke-linecap="round"/>
<path d="M81.9504 60.241C81.918 61.1817 81.5951 64.9574 83.6654 63.4517C84.2013 63.0619 84.554 62.3407 84.3833 61.6768C84.2045 60.9816 82.7357 59.6157 82.1498 60.6199C80.9562 62.6661 83.8946 63.4269 83.3065 61.5971C81.7618 56.7916 77.0509 65.1762 82.3094 64.8476C87.709 64.5101 83.5043 57.5678 80.5545 60.939C77.5425 64.3812 84.5666 66.2573 84.4631 61.5971C84.4362 60.3881 82.2967 58.0532 80.9533 58.9648C79.5474 59.9188 79.8471 63.3996 81.4319 63.9701C83.0859 64.5656 84.9668 63.7504 84.8021 61.8563C84.6941 60.6144 82.1315 58.1437 81.1527 59.7624C80.4763 60.8812 80.0114 64.7694 82.4689 63.9502C83.8304 63.4964 84.1228 61.3303 83.0273 60.6" stroke="black" stroke-width="3" stroke-linecap="round"/>
<path d="M90.6963 150.839C90.7974 160.241 91.275 169.756 93.296 178.85C93.9248 181.68 94.6508 184.893 94.6508 187.748C94.6508 190.312 95.3099 192.948 95.3099 195.328C95.3099 197.639 101.731 192.192 102.56 193.021" stroke="black" stroke-width="3" stroke-linecap="round"/>
<path d="M59.7191 155.453C60.745 165.592 62.8149 176.248 63.0145 186.43C63.0676 189.136 63.3132 193.558 64.6622 195.987C65.0987 196.772 66.1082 201.317 65.2847 201.552C63.269 202.128 59.4712 201.426 58.4009 203.566" stroke="black" stroke-width="3" stroke-linecap="round"/>
<path d="M14.1799 101.817C9.89426 113.106 7.26828 125.104 6.83736 137.17C6.75584 139.453 6.83736 141.752 6.83736 144.037C6.83736 146.618 4.31167 150.939 2.31623 152.535C1.01531 153.576 4.09 149.714 5.00171 148.32C5.24913 147.942 7.44924 144.342 7.44924 146.212C7.44924 148.752 7.47921 151.182 7.92515 153.691C8.24387 155.484 8.06112 155.696 8.06112 153.793C8.06112 152.079 7.7291 145.472 8.40106 146.144C9.57516 147.318 16.6467 151.083 16.0156 150.767" stroke="black" stroke-width="3" stroke-linecap="round"/>
<path d="M113.52 93.5728C114.654 87.6948 116.15 81.9964 117.402 76.2057C117.741 74.6388 117.5 71.9924 118.553 70.7645C120.12 68.9374 120.264 75.8368 120.171 77.0692C119.918 80.4059 118.483 83.3649 118.564 86.7572C118.609 88.6287 116.823 91.0368 117.029 92.5589C117.076 92.9015 116.604 94.4494 116.145 94.4604C115.381 94.4787 116.472 88.2443 116.543 87.7768C117.014 84.6733 117.597 81.013 117.607 77.8538C117.615 75.0086 118.355 72.3618 117.964 69.4768C117.662 67.2465 119.974 66.3398 121.518 66.8915C124.809 68.0676 121.699 78.2333 120.863 80.9579C119.93 83.9981 120.065 87.5438 118.818 90.4704C117.7 93.0952 119.851 84.856 120.518 82.0819C121.35 78.6189 122.003 75.0525 121.917 71.4691C121.882 69.9995 122.667 65.6867 119.986 68.4986C119.007 69.5253 119.356 70.7658 119.142 72.0934C118.861 73.846 118.11 79.1179 118.359 77.3605C118.727 74.7768 119.327 72.0354 119.264 69.425C119.237 68.2833 117.422 68.3148 117.115 69.3939C116.248 72.4424 116.411 76.1565 115.783 79.3439C115.479 80.8823 115.152 83.5941 115.364 85.1602C115.468 85.9259 114.533 87.0573 114.502 87.9703C114.482 88.5323 113.948 89.0187 113.959 89.471C113.97 89.9445 114.707 90.097 114.77 90.5674C115.314 94.5784 112.086 100.203 110.88 104.133C108.884 110.636 106.429 117.243 105.029 123.82C104.298 127.252 102.894 130.523 102.214 133.971C101.7 136.578 105.916 129.987 106.193 129.288C108.597 123.236 110.736 117.084 112.362 110.792C113.428 106.667 115.569 101.465 115.468 97.2454C115.417 95.1135 115.857 92.5037 116.338 90.4472C116.463 89.9123 116.07 87.4689 116.206 89.2312C116.307 90.554 115.893 91.8778 115.763 93.1678C115.414 96.6231 115.157 100.263 114.132 103.6C112.5 108.916 112.547 114.496 110.988 119.854C109.903 123.586 107.896 126.96 106.68 130.64C106.099 132.399 105.934 132.912 106.263 130.485C107.121 124.158 108.789 117.862 109.86 111.554C110.597 107.207 111.075 102.619 113.187 98.6638C115.65 94.0533 113.084 102.565 112.776 103.922C111.828 108.103 110.643 112.236 109.604 116.396C109.108 118.378 108.015 120.832 108.065 122.921C108.18 127.688 110.519 113.703 111.66 109.073C113.033 103.503 115.132 98.2474 115.333 92.4755C115.362 91.633 115.588 89.4661 116.958 89.5851C119.35 89.7931 116.995 97.1949 116.699 98.621C116.421 99.9635 112.192 112.728 112.752 113.262C112.931 113.433 113.938 109.546 113.962 109.452C114.923 105.756 116.294 102.216 116.922 98.4297C117.343 95.8884 117.175 93.0524 117.994 90.5728C118.22 89.8888 119.7 89.186 119.534 88.449C119.408 87.8894 119.769 89.5882 119.72 90.1595C119.516 92.5085 118.644 94.8128 118.109 97.0995C116.782 102.775 116.097 108.42 114.381 114.008C113.191 117.888 111.583 121.613 110.399 125.468C109.404 128.712 107.116 135.589 102.999 135.688C99.8638 135.763 105.001 114.47 105.854 111.692C108.097 104.386 109.181 96.9359 111.402 89.6976C112.306 86.7547 112.716 83.5881 113.769 80.6939C114.353 79.0911 115.152 77.6035 115.619 75.9591C116 74.6185 115.809 73.1075 116.721 71.9242C117.272 71.2089 120.327 62.3662 121.139 63.14C122.512 64.4485 119.652 71.2511 119.35 72.977C118.706 76.6478 118.184 79.9943 116.625 83.4563C115.358 86.2709 113.813 89.7323 113.544 92.8283C113.275 95.9218 113.221 98.6605 112.018 101.585C111.234 103.487 110.654 105.391 110.006 107.336C108.492 111.88 112.199 98.0064 113.059 93.2945C113.487 90.9478 113.958 88.6171 114.42 86.2779C114.659 85.0641 113.587 88.6095 113.244 89.7981C111.509 95.8016 110.496 102.021 109.074 108.102C107.822 113.455 108.005 119.342 106.453 124.612C106.028 126.054 105.367 127.7 105.303 129.206C105.281 129.707 106.921 126.571 107.07 126.209C108.56 122.577 110.046 118.977 111.02 115.163C112.501 109.37 114.116 103.767 116.234 98.1775C117.749 94.1787 118.824 90.6332 118.947 86.3554C119.029 83.4897 120.395 81.0008 120.88 78.23C121.129 76.8139 120.887 75.5356 121.319 74.1282C121.96 72.0401 122.222 69.9932 122.741 67.8954C122.936 67.1033 122.426 66.555 122.361 65.8382C122.209 64.1728 121.165 68.9817 120.864 70.6265C120.362 73.359 119.978 76.1982 119.823 78.9578C119.601 82.9328 117.739 86.5372 117.539 90.5424C117.352 94.2806 115.565 97.8684 115.57 101.499C115.573 104.433 115.084 107.09 114.74 109.991C113.924 116.872 109.824 124.886 105.091 129.852" stroke="#E6D1B0" stroke-width="3" stroke-linecap="round"/>
<path d="M126.596 85.939C131.302 87.5004 136.689 88.657 141.203 90.7884C141.344 90.8552 141.773 91.3392 141.816 91.4895C142.233 92.948 140.523 94.0404 139.742 94.9951C135.921 99.6653 130.511 102.029 125.807 105.687C120.69 109.667 113.885 114.89 107.666 116.963" stroke="black" stroke-width="3" stroke-linecap="round"/>
<path d="M70.3316 75.4222C67.9461 76.762 61.9395 82.091 58.7631 82.2581C56.545 82.3749 51.9272 84.6065 51.9272 81.7323" stroke="black" stroke-width="3" stroke-linecap="round"/>
<path d="M74.0123 75.4223C79.5161 80.1755 82.4457 81.5582 89.2324 80.7099C90.5953 80.5395 92.6038 80.2137 93.7312 79.3369C94.5309 78.7149 95.7838 78.0937 96.3312 77.2335C96.5936 76.8212 96.6233 74.8388 96.6233 75.4223" stroke="black" stroke-width="3" stroke-linecap="round"/>
<path d="M67.1765 86.9907C68.1839 87.7234 72.5355 91.9123 74.0124 89.3278C74.4431 88.5741 76.1286 87.523 75.0641 86.9907" stroke="black" stroke-width="3" stroke-linecap="round"/>
<path d="M25.8368 43.0007C29.6354 37.8392 33.8475 32.841 38.5039 28.4407C42.4449 24.7164 47.708 22.5693 51.6964 18.9352C53.5889 17.2108 55.6351 16.9393 57.6398 15.6436C60.0942 14.0572 62.8591 13.1784 65.5785 12.2108C69.8298 10.6979 74.0797 9.97388 78.6864 10.188C79.8117 10.2403 85.8702 11.0483 82.4848 10.8909C79.9975 10.7753 77.6787 10.8929 75.2247 11.0507C71.8732 11.2662 68.9188 12.6975 65.6464 13.2667C62.2064 13.8651 57.8621 15.5525 54.9267 17.3892C51.811 19.3386 47.9563 20.4031 45.1978 22.8444C40.5835 26.928 35.5663 29.3292 31.7977 34.2996C29.9192 36.7773 26.8824 38.6608 25.268 41.3951C24.2066 43.1928 22.4318 44.4217 20.2482 44.3202C14.6216 44.0587 15.6847 35.707 18.6999 32.9597C20.7297 31.1102 22.1338 28.8821 23.5587 26.5763C24.5362 24.9945 26.0555 23.6611 27.0746 22.0313C28.0028 20.547 28.7958 18.7891 29.9207 17.4259C31.6196 15.3673 33.382 13.4059 35.3164 11.4476C37.6482 9.08701 41.7006 8.45091 44.5988 6.79044C46.727 5.57111 52.2608 4.7485 54.6901 4.86141C58.8388 5.05424 62.9976 3.66833 67.1364 3.8607C70.3847 4.01168 73.8294 2.59257 76.9271 2.73655C79.5549 2.85869 81.4865 4.22672 83.7985 5.27853C85.3497 5.98425 89.2073 10.3552 85.4919 11.0015C84.5296 11.1689 82.9761 11.3889 82.0518 11.3972C80.5852 11.4105 79.4603 12.2815 78.2094 12.2714C65.852 12.1725 54.3775 18.2682 43.6899 23.8271C41.4874 24.9727 39.228 25.7745 37.0515 26.9695C33.6422 28.8413 30.9662 31.5969 27.869 33.8831C25.5036 35.6291 24.7763 38.7132 22.6715 40.631C19.8485 43.2032 29.4312 36.878 32.1533 34.1992C33.4271 32.9457 33.4544 33.2612 32.346 33.828C30.1044 34.9743 28.4856 36.6442 26.5831 38.2685C22.1804 42.0276 24.6479 39.5568 27.1559 37.2716C27.4487 37.0047 30.9512 33.772 28.9943 34.842C26.6021 36.1499 24.4389 38.0505 22.8072 40.2279C19.9692 44.0151 23.8147 39.9456 23.8835 38.4647C24.0291 35.333 16.8808 43.8942 18.7884 43.6382C20.613 43.3933 27.0072 36.7382 23.912 36.5944C21.3132 36.4736 17.6907 39.0728 19.5634 42.0657C20.3188 43.2731 26.2149 37.0281 22.2486 35.2595C19.9373 34.229 17.8784 37.0499 18.9946 39.2026C20.8739 42.827 27.5864 36.3487 24.1399 34.2069C21.471 32.5483 18.8193 36.7225 19.2959 39.0119C19.879 41.813 25.7893 33.9389 24.9678 31.4964C23.8512 28.1765 19.0477 36.6093 19.4044 36.6773C20.134 36.8164 23.5373 31.5021 23.7536 30.5626C24.2396 28.4521 25.4631 27.3849 27.1555 25.9538C30.9574 22.739 32.9789 18.2917 36.61 15.0756C37.4754 14.3091 43.3689 10.8188 41.4717 11.1488C38.5537 11.6564 35.216 14.874 32.9712 16.6026C31.7165 17.5688 30.4174 18.5909 29.3161 19.7374C29.2307 19.8263 32.2819 17.7201 32.6998 17.4089C36.0253 14.932 39.7478 12.8446 42.9477 10.2231C44.1059 9.27421 42.4297 9.78797 41.9847 10.1783C40.2344 11.7137 38.333 12.7576 36.3949 14.042C35.881 14.3825 30.9693 17.9279 33.7516 16.171C37.8938 13.5555 49.8478 5.34447 46.573 8.98782C40.711 15.5095 32.0918 19.1232 26.5054 26.0991C26.0615 26.6533 27.9089 25.7146 28.4734 25.284C30.8111 23.5009 33.0228 21.5609 35.3676 19.7847C37.7426 17.9856 40.1925 16.2884 42.6011 14.5352C43.2621 14.054 46.2754 12.4422 46.5466 11.4432C46.7109 10.8379 45.4652 12.0871 44.9776 12.4815C42.5846 14.4174 40.1331 16.2587 37.696 18.1382C33.6317 21.2727 29.5103 24.5628 25.7142 28.0217C19.7201 33.4833 38.6586 18.2504 45.0855 13.3054C48.408 10.7491 38.3461 18.3045 35.1634 21.0327C32.4136 23.3899 29.6865 25.7779 26.9649 28.1676C26.1397 28.8921 21.8517 31.843 21.7823 33.337C21.7314 34.4308 23.5798 32.0845 24.4452 31.4136C26.9404 29.4792 29.4497 27.5639 31.9379 25.6205C34.6483 23.5036 37.3603 21.4014 40.1527 19.393C41.5538 18.3852 45.9444 16.2698 44.2204 16.1897C43.5677 16.1593 42.169 17.569 41.8336 17.8334C39.1514 19.9482 36.3803 21.9446 33.6786 24.0344C29.5966 27.1919 17.5058 36.8027 21.8664 34.0428C27.4502 30.5086 32.4795 26.0434 37.8576 22.2108C40.8338 20.0898 43.8746 18.0515 46.9729 16.1129C47.288 15.9158 48.6126 15.0634 49.2267 14.8139C49.4373 14.7283 48.9194 15.153 48.7367 15.2883C40.3154 21.5226 15.6623 41.0235 24.0836 34.7892C28.9472 31.1887 33.339 27.1632 38.4264 23.8164C42.0353 21.4423 45.6968 19.134 49.393 16.898C50.9182 15.9754 55.6655 13.5868 53.967 14.1276C47.3533 16.2335 41.3448 22.2413 36.0532 26.4259C32.5558 29.1916 29.1279 32.0184 25.7999 34.9859C24.0223 36.571 22.7624 37.6118 25.4226 35.5533C31.9008 30.5405 38.2302 25.3521 45.1679 20.9713C48.9086 18.6094 60.7435 12.8374 56.4861 14.04C55.1864 14.4071 53.9105 15.4665 52.8188 16.1799C49.1226 18.595 45.4231 21.0033 41.6662 23.3236C38.959 24.9956 36.2197 26.6144 33.5376 28.3268C30.512 30.2585 34.2342 27.8117 34.4456 27.6672C40.3094 23.6567 46.0932 19.6928 52.4537 16.4846C55.4948 14.9507 64.6838 10.492 61.5596 11.8485C56.5729 14.0136 51.5475 16.2985 46.7036 18.7616C44.0589 20.1065 41.4751 21.5645 39.0371 23.2599C38.2444 23.8112 35.5846 25.9563 38.3517 24.1639C43.6675 20.7205 48.9947 17.221 54.1135 13.4911C55.3164 12.6146 62.3512 7.06763 56.6339 9.60167C50.6872 12.2374 45.1798 15.9617 39.7387 19.4907C34.1858 23.0922 42.5572 17.6825 43.7168 16.9559C47.659 14.4854 51.9382 12.2942 55.5358 9.31668C55.8955 9.01903 50.5468 11.898 49.363 12.5099C46.5579 13.9598 38.0481 17.7875 41.159 17.2464C43.9531 16.7604 47.2038 12.8841 49.3087 11.1621C49.4785 11.0232 53.1536 8.25758 51.3038 8.50583C48.4228 8.89247 45.3215 10.2679 43.1765 12.2223C40.7578 14.4261 42.0759 15.7134 44.88 14.5826C47.9378 13.3495 52.3929 10.8167 54.1405 7.87732C54.6692 6.98811 51.2644 7.8552 51.0975 7.91135C48.496 8.78629 45.2818 10.2673 44.3058 13.0937C42.8582 17.2857 61.9952 5.71885 57.7474 5.14974C55.1568 4.80265 45.1046 11.2542 50.1217 12.5452C54.1996 13.5944 58.8292 10.9972 61.9992 8.68126C63.1507 7.84006 65.867 5.3884 62.5923 5.98907C61.5405 6.18198 51.2651 9.35776 56.4208 10.4106C59.5508 11.0498 63.169 9.27567 65.1806 6.92822C66.9788 4.82987 65.727 3.6895 63.4052 4.85706C59.2677 6.93775 56.9197 13.2769 63.8927 10.7287C65.2457 10.2342 71.9001 6.93514 70.9002 4.67902C70.3062 3.33895 65.7988 6.00926 65.1413 6.51697C63.9943 7.40255 62.7161 9.3453 64.3148 10.4558C66.5508 12.0091 69.695 10.7841 71.564 9.27205C77.3435 4.59656 70.8353 2.65443 68.3614 7.07607C66.6188 10.1908 73.8677 8.56442 74.8201 5.91402C75.9955 2.64267 63.8294 9.66961 67.9048 9.97932C70.0719 10.144 74.5321 5.08263 71.5143 4.67832C69.8297 4.45262 67.6914 6.05678 67.7106 7.86467C67.7317 9.84616 72.8013 7.66263 73.4961 7.34397C73.7433 7.23056 78.7374 5.06956 76.8288 5.48099C72.1074 6.4988 74.6036 10.5312 78.3857 8.47782C81.3204 6.88454 78.1525 3.49242 76.0423 5.41518C72.5091 8.63447 77.9953 10.9001 80.349 7.13608C81.1959 5.78171 78.0834 4.4068 78.0016 7.93356C77.8893 12.7728 84.5208 6.48189 83.861 6.45122C82.9101 6.40702 81.3606 9.44971 82.4183 9.8058C83.9842 10.333 84.5958 8.44877 84.2676 9.6578C83.8751 11.1034 86.4742 10.5182 85.7042 9.57835C83.4417 6.81661 77.1556 7.59807 74.3193 7.87939C63.9648 8.90642 53.9748 13.1217 43.5715 13.7907C41.5356 13.9216 37.2224 13.3546 35.706 11.8751C33.9086 10.1215 31.5087 9.58307 29.2608 8.97277C27.4199 8.47293 31.258 11.0669 32.1648 11.3011C33.9569 11.764 35.1914 12.6651 36.6833 13.4998" stroke="black" stroke-width="3" stroke-linecap="round"/>
<path d="M51.0852 9.43154C39.4182 9.03718 52.6748 10.0287 50.5355 7.41735C48.7262 5.20886 43.8001 11.1985 46.3769 11.3183C50.0349 11.4883 53.6895 3.83875 48.6054 6.15785C47.0201 6.88098 44.5024 9.65197 47.3839 9.78591" stroke="black" stroke-width="3" stroke-linecap="round"/>
<path d="M121.562 75.4023L115.04 80.8379" stroke="#D9B47D" stroke-linecap="round"/>
<path d="M118.437 85.866C116.773 87.0989 115.097 88.3012 113.545 89.6709" stroke="#D9B47D" stroke-linecap="round"/>
<path d="M116.3 95C114.566 96.4124 112.859 97.8374 111 99.0767" stroke="#D9B47D" stroke-linecap="round"/>
<path d="M115.991 102.988C113.443 104.628 110.771 106.157 108.381 108.016" stroke="#D9B47D" stroke-linecap="round"/>
<path d="M113.409 111.821C112.542 112.401 111.682 112.989 110.827 113.587" stroke="#D9B47D" stroke-linecap="round"/>
<path d="M104.305 126.361C106.151 125.044 107.889 123.405 110.012 122.556" stroke="#D9B47D" stroke-linecap="round"/>
<path d="M103.761 132.476C105.86 131.121 107.978 129.896 110.148 128.671" stroke="#D9B47D" stroke-linecap="round"/>
<path d="M114.224 80.7021C116.186 78.8156 118.336 77.1952 120.339 75.4024C120.981 74.8283 121.245 74.6046 121.902 75.1307C122.443 75.5635 121.648 76.5224 121.291 76.7009C120.434 77.1294 119.828 78.2095 119.086 78.7997C118.144 79.5489 117.151 80.8962 116.059 81.3816C115.392 81.6781 114.542 82.5864 113.922 82.0912C113.722 81.9306 113.389 81.8065 113.621 81.4419C113.773 81.2023 114.635 80.1586 114.632 80.1586" stroke="#F0E5D4" stroke-linecap="round"/>
<path d="M116.263 86.5454C115.148 87.2887 114.141 87.9876 113.205 88.9235C112.896 89.2327 112.036 89.7244 112.194 90.2748C112.427 91.0898 113.98 89.7763 114.292 89.6029C115.01 89.2043 115.774 88.8085 116.459 88.3723C117.088 87.9721 117.778 87.5983 118.195 86.9531C118.596 86.3346 119.745 85.9656 119.796 85.0506C119.866 83.7929 117.705 85.0788 117.35 85.564C117.072 85.944 116.555 86.4373 116.195 86.7417C115.818 87.0608 115.303 87.0949 114.904 87.3607" stroke="#F0E5D4" stroke-linecap="round"/>
<path d="M113.953 96.0576C113.227 96.5353 109.876 98.0644 109.876 99.319C109.876 100.316 110.669 99.9506 111.235 99.4473C112.053 98.7203 113.176 98.4649 113.953 97.6883C114.601 97.0396 115.456 96.6576 116.127 96.0576C116.7 95.5447 117.1 95.0877 117.561 94.4949C118.249 93.6103 116.367 93.8756 115.991 94.0495C114.479 94.7494 113.628 96.2419 112.05 96.873" stroke="#F0E5D4" stroke-linecap="round"/>
<path d="M111.778 104.347C110.855 105.134 109.87 105.777 108.789 106.317C108.323 106.55 108.101 106.981 107.702 107.231C107.212 107.537 106.812 108.273 107.264 108.725C107.918 109.379 109.476 108.179 110.012 107.88C110.886 107.392 111.79 106.843 112.609 106.317C113.553 105.71 114.531 105.177 115.508 104.619C116.074 104.295 117.183 103.501 117.342 102.784C117.638 101.455 115.664 102.268 115.176 102.512C113.64 103.28 112.118 104.075 110.691 105.026" stroke="#F0E5D4" stroke-linecap="round"/>
<path d="M112.322 111.413C111.593 111.952 111.026 112.504 110.352 113.044C110.057 113.28 109.687 113.859 109.333 113.859" stroke="#F0E5D4" stroke-linecap="round"/>
<path d="M111.507 111.685C111.818 111.51 114.225 109.826 114.225 111.141" stroke="#F0E5D4" stroke-linecap="round"/>
<path d="M106.479 123.507C105.311 124.301 104.565 125.149 103.625 126.089C103.436 126.279 102.577 127.538 103.353 127.584C103.758 127.608 104.642 126.988 104.954 126.738C105.391 126.389 105.899 125.953 106.479 125.953" stroke="#F0E5D4" stroke-linecap="round"/>
<path d="M109.74 123.915C110.639 123.22 111.643 122.435 111.643 121.265C111.643 120.857 111.671 120.747 111.295 120.986C110.978 121.188 110.59 121.265 110.284 121.469" stroke="#F0E5D4" stroke-linecap="round"/>
<path d="M107.294 128.943C106.467 129.252 105.511 129.538 104.848 130.166C104.629 130.374 104.524 130.638 104.305 130.845C103.893 131.234 103.423 131.455 103.014 131.864C102.696 132.182 102.402 132.628 102.402 133.087C102.402 133.741 103.844 132.706 104.033 132.612C105.297 131.98 106.476 131.284 107.77 130.709C108.238 130.501 108.605 130.018 109.129 129.902C109.639 129.788 110.148 129.902 110.148 129.215" stroke="#F0E5D4" stroke-linecap="round"/>
<path d="M106.614 116.963C103.904 116.963 101.021 117.235 98.3176 116.934C97.3943 116.832 97.8765 116.438 98.4637 116.438C101.249 116.438 103.623 115.965 106.293 115.152C107.579 114.761 108.242 114.526 107.549 115.912C106.519 117.971 104.579 119.633 103.459 121.696C102.377 123.69 103.634 122.125 104.248 121.17C104.693 120.478 109.404 115.787 109.682 116.204C109.771 116.337 108.373 122.515 108.309 123.157C108.249 123.754 108.015 129.411 108.718 128.006" stroke="black" stroke-width="3" stroke-linecap="round"/>
</svg>
